<?xml version="1.0" encoding="UTF-8" standalone="no"?>
<svg
   version="1.1"
   width="180.31398pt"
   height="64pt"
   viewBox="0 0 180.31398 64.000001"
   id="svg152"
   xml:space="preserve"
   xmlns="http://www.w3.org/2000/svg"
   xmlns:svg="http://www.w3.org/2000/svg"><defs
     id="defs156" /><g
     id="layer1"
     style="display:inline"
     transform="translate(-37.560999,-87.7277)"><g
       id="g2859"
       style="fill:#000000"><g
         id="g2821"
         style="display:inline;fill:#000000"><path
           d="m 42.699999,125.071 v 7.946 c -0.2371,0.053 -0.5732,0.119 -1.008,0.198 -0.4348,0.079 -0.9026,0.118 -1.4033,0.118 -1.0015,0 -1.7065,-0.184 -2.1149,-0.553 -0.4085,-0.369 -0.6128,-0.988 -0.6128,-1.858 v -19.845 c 0,-0.5 0.1318,-0.882 0.3953,-1.146 0.2636,-0.264 0.6325,-0.474 1.1069,-0.632 0.4217,-0.132 0.8894,-0.251 1.4033,-0.356 0.5139,-0.106 1.0476,-0.191 1.601,-0.257 0.5535,-0.066 1.1069,-0.112 1.6603,-0.139 0.5535,-0.026 1.0806,-0.039 1.5813,-0.039 3.4787,0 6.0943,0.744 7.8469,2.233 1.7525,1.489 2.6288,3.499 2.6288,6.029 0,2.53 -0.8565,4.546 -2.5695,6.048 -1.713,1.502 -4.1903,2.253 -7.4318,2.253 z m 2.7672,-4.111 c 1.5812,0 2.8265,-0.342 3.7357,-1.028 0.9092,-0.685 1.3638,-1.739 1.3638,-3.162 0,-1.371 -0.4283,-2.398 -1.2848,-3.084 -0.8565,-0.685 -2.1017,-1.027 -3.7356,-1.027 -1.1333,0 -2.0952,0.079 -2.8858,0.237 v 8.064 z"
           fill="#ffffff"
           id="path82"
           style="fill:#000000;fill-opacity:1" /><path
           d="m 63.076599,133.561 c 0.4216,0.224 1.4071,0.28 2.0857,-0.036 0.054,-0.019 0.1868,-0.067 0.3851,-0.14 0.1275,-0.036 0.2319,-0.078 0.307,-0.116 2.2479,-0.851 9.1346,-3.665 11.879599,-6.845 1.4604,-1.691 2.6557,-4.512 1.1914,-7.373 -0.6624,-1.295 -1.5782,-2.417 -3.3254,-3.201 -1.234799,-0.554 -2.674799,-0.503 -4.366099,0.322 0.0015,0 -1.4934,0.684 -1.4934,0.684 l -0.5955,-1.507 c -0.6709,-1.76 -1.6882,-2.781 -2.9688,-3.22 -1.8114,-0.621 -3.2469,-0.427 -4.6149,0.065 -3.0242,1.089 -4.0786,3.966 -4.1678,6.199 -0.1948,4.878 4.2899,13.537 4.5896,14.11 0.2544,0.642 0.67,0.918 1.0935,1.058 z m 1.878,-4.423 c -1.3366,-2.501 -3.0677,-6.142 -3.5045,-9.006 -0.2666,-1.748 -0.0952,-3.202 1.2488,-3.699 0.5566,-0.206 0.9284,-0.275 1.4525,-0.11 0.159,0.051 0.3402,0.201 0.5264,0.386 0.3367,0.335 0.6638,0.796 0.8277,1.225 l 1.1379,3.036 c 0.0296,0.077 0.0684,0.15 0.116,0.219 0.1256,0.269 0.2866,0.455 0.4238,0.539 0.9339,0.57 1.559,0.454 2.2461,0.118 0.0043,-0.002 0.0086,-0.004 0.0128,-0.007 l 3.2396,-1.691 c 0.6063,-0.293 1.1316,-0.043 1.5314,0.148 0.4958,0.237 0.7199,0.542 0.985799,1.073 0.6563,1.309 -0.223499,2.511 -1.624099,3.617 -2.2842,1.804 -6.0302,3.272 -8.6202,4.152 z"
           fill="#ffffff"
           id="path84"
           style="fill:#000000;fill-opacity:1" /><path
           d="m 86.658398,133.017 c -0.2372,0.053 -0.5534,0.119 -0.9488,0.198 -0.3953,0.079 -0.8433,0.118 -1.344,0.118 -0.9224,0 -1.6076,-0.171 -2.0556,-0.514 -0.448,-0.342 -0.672,-0.948 -0.672,-1.818 v -23.639 c 0.2108,-0.08 0.5205,-0.152 0.9289,-0.218 0.4085,-0.066 0.8631,-0.099 1.3639,-0.099 0.9223,0 1.6075,0.172 2.0556,0.514 0.448,0.343 0.672,0.949 0.672,1.819 v 5.455 c 0.5798,-0.29 1.2452,-0.54 1.9963,-0.751 0.7511,-0.211 1.5878,-0.316 2.5102,-0.316 2.3982,0 4.3089,0.619 5.732,1.857 1.4231,1.239 2.1347,3.11 2.1347,5.614 v 11.78 c -0.2109,0.053 -0.5205,0.119 -0.929,0.198 -0.4085,0.079 -0.8499,0.118 -1.3243,0.118 -0.9488,0 -1.6471,-0.171 -2.0951,-0.514 -0.4481,-0.342 -0.6721,-0.948 -0.6721,-1.818 v -9.527 c 0,-1.318 -0.3426,-2.273 -1.0278,-2.866 -0.6852,-0.593 -1.5812,-0.889 -2.6881,-0.889 -0.7115,0 -1.3704,0.112 -1.9765,0.336 -0.6062,0.224 -1.1596,0.494 -1.6603,0.81 z"
           fill="#ffffff"
           id="path86"
           style="fill:#000000;fill-opacity:1" /><path
           d="m 109.31,133.017 c -0.211,0.053 -0.521,0.119 -0.929,0.198 -0.409,0.079 -0.85,0.118 -1.325,0.118 -0.948,0 -1.64,-0.171 -2.075,-0.514 -0.435,-0.342 -0.652,-0.948 -0.652,-1.818 v -23.639 c 0.211,-0.08 0.52,-0.152 0.929,-0.218 0.408,-0.066 0.85,-0.099 1.324,-0.099 0.949,0 1.64,0.172 2.075,0.514 0.435,0.343 0.653,0.949 0.653,1.819 z"
           fill="#ffffff"
           id="path88"
           style="fill:#000000;fill-opacity:1" /><path
           d="m 117.572,133.373 c -0.949,0 -1.648,-0.178 -2.096,-0.534 -0.448,-0.356 -0.672,-0.955 -0.672,-1.798 v -16.524 c 0.211,-0.053 0.514,-0.119 0.91,-0.198 0.395,-0.079 0.83,-0.119 1.304,-0.119 0.949,0 1.647,0.178 2.095,0.534 0.448,0.356 0.672,0.955 0.672,1.799 v 16.524 c -0.211,0.052 -0.514,0.118 -0.909,0.197 -0.395,0.079 -0.83,0.119 -1.304,0.119 z m 2.371,-28.779 c 0.975,0 1.727,0.224 2.254,0.672 0.527,0.448 0.79,0.949 0.79,1.503 0,0.5 -0.105,0.902 -0.316,1.205 -0.211,0.303 -0.567,0.679 -1.067,1.127 l -3.677,3.32 c -0.843,0 -1.495,-0.21 -1.956,-0.632 -0.462,-0.422 -0.692,-0.883 -0.692,-1.384 0,-0.29 0.059,-0.54 0.178,-0.751 0.118,-0.211 0.309,-0.461 0.573,-0.751 z"
           fill="#ffffff"
           id="path90"
           style="fill:#000000;fill-opacity:1" /><path
           d="m 142.318,129.42 c 0,0.606 -0.132,1.093 -0.395,1.462 -0.264,0.369 -0.659,0.725 -1.186,1.068 -0.659,0.421 -1.529,0.81 -2.609,1.166 -1.081,0.356 -2.333,0.534 -3.756,0.534 -3.162,0 -5.673,-0.811 -7.53,-2.432 -1.858,-1.62 -2.787,-4.104 -2.787,-7.451 0,-1.74 0.25,-3.235 0.751,-4.487 0.5,-1.252 1.179,-2.286 2.036,-3.103 0.856,-0.817 1.864,-1.423 3.024,-1.819 1.159,-0.395 2.411,-0.592 3.755,-0.592 0.712,0 1.384,0.072 2.016,0.217 0.633,0.145 1.199,0.323 1.7,0.534 v -7.155 c 0.211,-0.08 0.52,-0.152 0.929,-0.218 0.408,-0.066 0.85,-0.099 1.324,-0.099 0.949,0 1.641,0.172 2.076,0.514 0.434,0.343 0.652,0.949 0.652,1.819 z m -4.981,-10.871 c -0.395,-0.237 -0.857,-0.435 -1.384,-0.593 -0.527,-0.158 -1.093,-0.237 -1.699,-0.237 -1.476,0 -2.702,0.474 -3.677,1.423 -0.975,0.948 -1.462,2.503 -1.462,4.664 0,2.03 0.467,3.512 1.403,4.448 0.935,0.935 2.207,1.403 3.815,1.403 0.685,0 1.271,-0.079 1.759,-0.237 0.487,-0.158 0.902,-0.343 1.245,-0.554 z"
           fill="#ffffff"
           id="path92"
           style="fill:#000000;fill-opacity:1" /><path
           d="m 154.77,129.855 c 0.764,0 1.463,-0.073 2.095,-0.218 0.633,-0.145 1.094,-0.323 1.384,-0.534 v -4.387 l -3.835,0.355 c -1.054,0.106 -1.858,0.336 -2.411,0.692 -0.553,0.356 -0.83,0.916 -0.83,1.68 0,0.764 0.283,1.357 0.85,1.779 0.566,0.422 1.482,0.633 2.747,0.633 z m -0.158,-16.089 c 2.583,0 4.645,0.553 6.187,1.66 1.541,1.107 2.312,2.82 2.312,5.139 v 9.131 c 0,0.633 -0.158,1.134 -0.474,1.503 -0.317,0.369 -0.712,0.698 -1.186,0.988 -0.738,0.448 -1.674,0.804 -2.807,1.067 -1.133,0.264 -2.424,0.396 -3.874,0.396 -2.635,0 -4.711,-0.508 -6.226,-1.522 -1.515,-1.015 -2.273,-2.537 -2.273,-4.566 0,-1.766 0.56,-3.117 1.68,-4.052 1.12,-0.936 2.747,-1.509 4.882,-1.72 l 5.416,-0.553 v -0.712 c 0,-1.001 -0.363,-1.739 -1.087,-2.213 -0.725,-0.475 -1.746,-0.712 -3.064,-0.712 -1.028,0 -2.029,0.125 -3.004,0.376 -0.975,0.25 -1.845,0.56 -2.609,0.929 -0.29,-0.211 -0.534,-0.495 -0.732,-0.85 -0.197,-0.356 -0.296,-0.745 -0.296,-1.167 0,-0.527 0.125,-0.955 0.375,-1.284 0.251,-0.33 0.653,-0.626 1.206,-0.89 0.764,-0.316 1.634,-0.553 2.609,-0.711 0.975,-0.158 1.964,-0.237 2.965,-0.237 z m 2.846,-9.172 c 0.975,0 1.726,0.224 2.253,0.672 0.528,0.448 0.791,0.949 0.791,1.503 0,0.5 -0.105,0.902 -0.316,1.205 -0.211,0.303 -0.567,0.679 -1.068,1.127 l -3.676,3.32 c -0.843,0 -1.495,-0.21 -1.957,-0.632 -0.461,-0.422 -0.691,-0.883 -0.691,-1.384 0,-0.29 0.059,-0.54 0.177,-0.751 0.119,-0.211 0.31,-0.461 0.574,-0.751 z"
           fill="#ffffff"
           id="path94"
           style="fill:#000000;fill-opacity:1" /><path
           d="m 195.882,133.017 c -0.211,0.053 -0.52,0.119 -0.929,0.198 -0.408,0.079 -0.85,0.118 -1.324,0.118 -0.949,0 -1.641,-0.171 -2.075,-0.514 -0.435,-0.342 -0.653,-0.948 -0.653,-1.818 v -10.278 c 0,-1.054 -0.29,-1.818 -0.869,-2.293 -0.58,-0.474 -1.344,-0.711 -2.293,-0.711 -0.633,0 -1.245,0.118 -1.838,0.355 -0.593,0.238 -1.114,0.554 -1.562,0.949 0.079,0.369 0.119,0.738 0.119,1.107 v 12.887 c -0.211,0.053 -0.521,0.119 -0.929,0.198 -0.409,0.079 -0.85,0.118 -1.324,0.118 -0.949,0 -1.641,-0.171 -2.076,-0.514 -0.435,-0.342 -0.652,-0.948 -0.652,-1.818 v -10.278 c 0,-1.054 -0.303,-1.818 -0.909,-2.293 -0.606,-0.474 -1.384,-0.711 -2.333,-0.711 -0.658,0 -1.265,0.105 -1.818,0.316 -0.553,0.211 -1.015,0.422 -1.384,0.632 v 14.35 c -0.237,0.053 -0.553,0.119 -0.948,0.198 -0.396,0.079 -0.844,0.118 -1.344,0.118 -0.923,0 -1.608,-0.171 -2.056,-0.514 -0.448,-0.342 -0.672,-0.948 -0.672,-1.818 v -12.689 c 0,-0.607 0.132,-1.114 0.395,-1.522 0.264,-0.409 0.672,-0.798 1.226,-1.167 0.79,-0.527 1.792,-0.968 3.004,-1.324 1.212,-0.356 2.464,-0.533 3.755,-0.533 2.399,0 4.349,0.645 5.851,1.937 0.764,-0.554 1.641,-1.015 2.629,-1.384 0.988,-0.369 2.154,-0.553 3.498,-0.553 1.028,0 2.003,0.125 2.926,0.375 0.922,0.25 1.719,0.652 2.391,1.206 0.672,0.553 1.206,1.258 1.601,2.115 0.396,0.856 0.593,1.877 0.593,3.063 z"
           fill="#ffffff"
           id="path96"
           style="fill:#000000;fill-opacity:1" /><path
           d="m 204.711,125.941 c 0.369,1.344 1.054,2.319 2.055,2.925 1.002,0.606 2.24,0.91 3.716,0.91 1.107,0 2.128,-0.165 3.064,-0.495 0.935,-0.329 1.693,-0.678 2.273,-1.047 0.369,0.211 0.672,0.501 0.909,0.869 0.237,0.369 0.356,0.765 0.356,1.186 0,0.527 -0.178,0.995 -0.534,1.404 -0.355,0.408 -0.843,0.757 -1.462,1.047 -0.62,0.29 -1.351,0.514 -2.194,0.672 -0.844,0.158 -1.753,0.238 -2.728,0.238 -1.555,0 -2.971,-0.211 -4.25,-0.633 -1.278,-0.422 -2.371,-1.061 -3.281,-1.917 -0.909,-0.857 -1.62,-1.917 -2.134,-3.182 -0.514,-1.265 -0.771,-2.741 -0.771,-4.428 0,-1.634 0.25,-3.057 0.751,-4.269 0.501,-1.213 1.179,-2.227 2.036,-3.044 0.856,-0.817 1.851,-1.423 2.984,-1.819 1.134,-0.395 2.333,-0.592 3.598,-0.592 1.291,0 2.477,0.204 3.557,0.612 1.081,0.409 2.003,0.975 2.768,1.7 0.764,0.725 1.363,1.594 1.798,2.609 0.435,1.015 0.653,2.115 0.653,3.301 0,0.738 -0.192,1.291 -0.574,1.66 -0.382,0.369 -0.915,0.606 -1.601,0.712 z m 4.388,-8.42 c -1.292,0 -2.372,0.428 -3.242,1.285 -0.87,0.856 -1.357,2.075 -1.462,3.656 l 8.775,-1.304 c -0.105,-0.975 -0.487,-1.825 -1.146,-2.55 -0.659,-0.725 -1.634,-1.087 -2.925,-1.087 z"
           fill="#ffffff"
           id="path98"
           style="fill:#000000;fill-opacity:1" /></g><g
         id="g2810"
         style="display:none;fill:#000000"><path
           d="m 83.256798,148.65 c -0.0666,0.015 -0.1553,0.033 -0.2662,0.056 -0.1109,0.022 -0.2366,0.033 -0.3771,0.033 -0.2588,0 -0.451,-0.048 -0.5767,-0.144 -0.1257,-0.096 -0.1886,-0.266 -0.1886,-0.51 v -6.633 c 0.0592,-0.022 0.1461,-0.042 0.2607,-0.061 0.1146,-0.018 0.2421,-0.027 0.3826,-0.027 0.2588,0 0.451,0.048 0.5767,0.144 0.1257,0.096 0.1886,0.266 0.1886,0.51 v 1.53 c 0.1626,-0.081 0.3493,-0.151 0.56,-0.21 0.2107,-0.059 0.4455,-0.089 0.7043,-0.089 0.6728,0 1.2089,0.174 1.6081,0.521 0.3993,0.348 0.5989,0.873 0.5989,1.575 v 3.305 c -0.0591,0.015 -0.146,0.033 -0.2606,0.056 -0.1146,0.022 -0.2385,0.033 -0.3716,0.033 -0.2661,0 -0.4621,-0.048 -0.5878,-0.144 -0.1256,-0.096 -0.1885,-0.266 -0.1885,-0.51 v -2.673 c 0,-0.37 -0.0961,-0.638 -0.2884,-0.804 -0.1922,-0.167 -0.4436,-0.25 -0.7541,-0.25 -0.1996,0 -0.3845,0.032 -0.5545,0.094 -0.1701,0.063 -0.3254,0.139 -0.4658,0.228 z"
           fill="#ffffff"
           id="path100"
           style="fill:#000000;fill-opacity:1" /><path
           d="m 89.611698,148.65 c -0.0592,0.015 -0.1461,0.033 -0.2607,0.056 -0.1146,0.022 -0.2384,0.033 -0.3715,0.033 -0.2662,0 -0.4603,-0.048 -0.5823,-0.144 -0.1219,-0.096 -0.1829,-0.266 -0.1829,-0.51 v -6.633 c 0.0591,-0.022 0.146,-0.042 0.2606,-0.061 0.1146,-0.018 0.2384,-0.027 0.3715,-0.027 0.2662,0 0.4603,0.048 0.5823,0.144 0.122,0.096 0.183,0.266 0.183,0.51 z"
           fill="#ffffff"
           id="path102"
           style="fill:#000000;fill-opacity:1" /><path
           d="m 91.929598,148.75 c -0.2662,0 -0.4621,-0.05 -0.5878,-0.15 -0.1257,-0.1 -0.1885,-0.268 -0.1885,-0.504 v -4.636 c 0.0591,-0.015 0.1441,-0.034 0.255,-0.056 0.111,-0.022 0.233,-0.033 0.366,-0.033 0.2662,0 0.4621,0.05 0.5878,0.15 0.1257,0.1 0.1886,0.268 0.1886,0.504 v 4.636 c -0.0592,0.015 -0.1442,0.034 -0.2551,0.056 -0.1109,0.022 -0.2329,0.033 -0.366,0.033 z m 0.6654,-8.074 c 0.2736,0 0.4843,0.063 0.6322,0.189 0.1479,0.125 0.2218,0.266 0.2218,0.421 0,0.14 -0.0296,0.253 -0.0887,0.338 -0.0592,0.085 -0.159,0.191 -0.2995,0.316 l -1.0314,0.932 c -0.2366,0 -0.4196,-0.059 -0.549,-0.177 -0.1294,-0.119 -0.194,-0.248 -0.194,-0.389 0,-0.081 0.0166,-0.151 0.0499,-0.21 0.0332,-0.06 0.0868,-0.13 0.1608,-0.211 z"
           fill="#ffffff"
           id="path104"
           style="fill:#000000;fill-opacity:1" /><path
           d="m 98.872298,147.641 c 0,0.17 -0.0369,0.307 -0.1109,0.41 -0.0739,0.104 -0.1848,0.204 -0.3327,0.3 -0.1848,0.118 -0.4288,0.227 -0.732,0.327 -0.3031,0.1 -0.6543,0.15 -1.0536,0.15 -0.8872,0 -1.5915,-0.228 -2.1127,-0.682 -0.5213,-0.455 -0.7819,-1.152 -0.7819,-2.091 0,-0.488 0.0702,-0.908 0.2107,-1.259 0.1405,-0.351 0.3309,-0.641 0.5712,-0.87 0.2403,-0.23 0.5231,-0.4 0.8484,-0.511 0.3253,-0.111 0.6765,-0.166 1.0536,-0.166 0.1996,0 0.3882,0.02 0.5656,0.061 0.1775,0.041 0.3364,0.091 0.4769,0.15 v -2.008 c 0.0592,-0.022 0.146,-0.042 0.2606,-0.061 0.1146,-0.018 0.2385,-0.027 0.3716,-0.027 0.2662,0 0.4602,0.048 0.5822,0.144 0.122,0.096 0.183,0.266 0.183,0.51 z m -1.3974,-3.05 c -0.1109,-0.067 -0.2403,-0.122 -0.3882,-0.166 -0.1478,-0.045 -0.3068,-0.067 -0.4769,-0.067 -0.414,0 -0.7578,0.133 -1.0314,0.399 -0.2736,0.267 -0.4103,0.703 -0.4103,1.309 0,0.569 0.1312,0.985 0.3937,1.248 0.2625,0.262 0.6192,0.393 1.0702,0.393 0.1923,0 0.3568,-0.022 0.4936,-0.066 0.1367,-0.044 0.2532,-0.096 0.3493,-0.155 z"
           fill="#ffffff"
           id="path106"
           style="fill:#000000;fill-opacity:1" /><path
           d="m 102.366,147.763 c 0.214,0 0.41,-0.02 0.588,-0.061 0.177,-0.041 0.307,-0.091 0.388,-0.15 v -1.231 l -1.076,0.1 c -0.296,0.03 -0.521,0.094 -0.676,0.194 -0.156,0.1 -0.233,0.257 -0.233,0.471 0,0.215 0.079,0.381 0.238,0.499 0.159,0.119 0.416,0.178 0.771,0.178 z m -0.044,-4.514 c 0.724,0 1.303,0.155 1.735,0.466 0.433,0.31 0.649,0.791 0.649,1.442 v 2.562 c 0,0.177 -0.044,0.317 -0.133,0.421 -0.089,0.104 -0.2,0.196 -0.333,0.277 -0.207,0.126 -0.469,0.226 -0.787,0.3 -0.318,0.074 -0.68,0.111 -1.087,0.111 -0.74,0 -1.322,-0.143 -1.747,-0.427 -0.425,-0.285 -0.637602,-0.712 -0.637602,-1.281 0,-0.496 0.157602,-0.875 0.471602,-1.137 0.314,-0.263 0.771,-0.423 1.369,-0.483 l 1.52,-0.155 v -0.199 c 0,-0.281 -0.102,-0.488 -0.305,-0.622 -0.203,-0.133 -0.49,-0.199 -0.86,-0.199 -0.288,0 -0.569,0.035 -0.843,0.105 -0.273,0.07 -0.517,0.157 -0.732,0.261 -0.081,-0.059 -0.149,-0.139 -0.205,-0.239 -0.055,-0.099 -0.083,-0.208 -0.083,-0.327 0,-0.148 0.035,-0.268 0.105,-0.36 0.071,-0.093 0.183,-0.176 0.339,-0.25 0.214,-0.089 0.458,-0.155 0.732,-0.199 0.273,-0.045 0.551,-0.067 0.832,-0.067 z m 0.798,-2.573 c 0.274,0 0.484,0.063 0.632,0.189 0.148,0.125 0.222,0.266 0.222,0.421 0,0.14 -0.03,0.253 -0.089,0.338 -0.059,0.085 -0.159,0.191 -0.299,0.316 l -1.032,0.932 c -0.236,0 -0.419,-0.059 -0.549,-0.177 -0.129,-0.119 -0.194,-0.248 -0.194,-0.389 0,-0.081 0.017,-0.151 0.05,-0.21 0.034,-0.06 0.087,-0.13 0.161,-0.211 z"
           fill="#ffffff"
           id="path108"
           style="fill:#000000;fill-opacity:1" /><path
           d="m 109.564,145.279 c 0,-0.318 -0.091,-0.551 -0.272,-0.699 -0.181,-0.148 -0.427,-0.222 -0.738,-0.222 -0.214,0 -0.412,0.026 -0.593,0.078 -0.181,0.051 -0.338,0.118 -0.471,0.199 v 4.015 c -0.067,0.015 -0.156,0.033 -0.266,0.056 -0.111,0.022 -0.237,0.033 -0.378,0.033 -0.258,0 -0.451,-0.048 -0.576,-0.144 -0.126,-0.096 -0.189,-0.266 -0.189,-0.51 v -3.561 c 0,-0.177 0.037,-0.321 0.111,-0.432 0.074,-0.111 0.189,-0.218 0.344,-0.322 0.214,-0.148 0.499,-0.271 0.854,-0.371 0.355,-0.1 0.747,-0.15 1.176,-0.15 0.761,0 1.351,0.168 1.768,0.505 0.418,0.336 0.627,0.83 0.627,1.48 v 3.416 c -0.059,0.015 -0.146,0.033 -0.261,0.056 -0.114,0.022 -0.238,0.033 -0.371,0.033 -0.266,0 -0.46,-0.048 -0.582,-0.144 -0.122,-0.096 -0.183,-0.266 -0.183,-0.51 z"
           fill="#ffffff"
           id="path110"
           style="fill:#000000;fill-opacity:1" /><path
           d="m 113.201,148.75 c -0.266,0 -0.462,-0.05 -0.587,-0.15 -0.126,-0.1 -0.189,-0.268 -0.189,-0.504 v -4.636 c 0.059,-0.015 0.144,-0.034 0.255,-0.056 0.111,-0.022 0.233,-0.033 0.366,-0.033 0.266,0 0.462,0.05 0.588,0.15 0.126,0.1 0.188,0.268 0.188,0.504 v 4.636 c -0.059,0.015 -0.144,0.034 -0.255,0.056 -0.111,0.022 -0.233,0.033 -0.366,0.033 z m 0.666,-8.074 c 0.273,0 0.484,0.063 0.632,0.189 0.148,0.125 0.222,0.266 0.222,0.421 0,0.14 -0.03,0.253 -0.089,0.338 -0.059,0.085 -0.159,0.191 -0.299,0.316 l -1.032,0.932 c -0.236,0 -0.419,-0.059 -0.549,-0.177 -0.129,-0.119 -0.194,-0.248 -0.194,-0.389 0,-0.081 0.017,-0.151 0.05,-0.21 0.033,-0.06 0.087,-0.13 0.161,-0.211 z"
           fill="#ffffff"
           id="path112"
           style="fill:#000000;fill-opacity:1" /><path
           d="m 119.567,147.763 c 0.215,0 0.411,-0.02 0.588,-0.061 0.178,-0.041 0.307,-0.091 0.388,-0.15 v -1.231 l -1.075,0.1 c -0.296,0.03 -0.522,0.094 -0.677,0.194 -0.155,0.1 -0.233,0.257 -0.233,0.471 0,0.215 0.08,0.381 0.239,0.499 0.159,0.119 0.416,0.178 0.77,0.178 z m -0.044,-4.514 c 0.725,0 1.303,0.155 1.736,0.466 0.432,0.31 0.649,0.791 0.649,1.442 v 2.562 c 0,0.177 -0.045,0.317 -0.134,0.421 -0.088,0.104 -0.199,0.196 -0.332,0.277 -0.207,0.126 -0.47,0.226 -0.788,0.3 -0.318,0.074 -0.68,0.111 -1.087,0.111 -0.739,0 -1.321,-0.143 -1.746,-0.427 -0.426,-0.285 -0.638,-0.712 -0.638,-1.281 0,-0.496 0.157,-0.875 0.471,-1.137 0.315,-0.263 0.771,-0.423 1.37,-0.483 l 1.519,-0.155 v -0.199 c 0,-0.281 -0.101,-0.488 -0.305,-0.622 -0.203,-0.133 -0.489,-0.199 -0.859,-0.199 -0.288,0 -0.569,0.035 -0.843,0.105 -0.274,0.07 -0.518,0.157 -0.732,0.261 -0.081,-0.059 -0.15,-0.139 -0.205,-0.239 -0.056,-0.099 -0.083,-0.208 -0.083,-0.327 0,-0.148 0.035,-0.268 0.105,-0.36 0.07,-0.093 0.183,-0.176 0.338,-0.25 0.215,-0.089 0.459,-0.155 0.732,-0.199 0.274,-0.045 0.551,-0.067 0.832,-0.067 z"
           fill="#ffffff"
           id="path114"
           style="fill:#000000;fill-opacity:1" /><path
           d="m 129.571,143.293 c 0.192,0 0.353,0.045 0.483,0.133 0.129,0.089 0.194,0.237 0.194,0.444 0,0.096 -0.028,0.252 -0.084,0.466 -0.055,0.214 -0.129,0.462 -0.221,0.743 -0.093,0.281 -0.198,0.584 -0.316,0.909 -0.119,0.326 -0.241,0.646 -0.366,0.96 -0.126,0.314 -0.252,0.612 -0.377,0.893 -0.126,0.281 -0.241,0.517 -0.344,0.709 -0.074,0.06 -0.185,0.108 -0.333,0.145 -0.148,0.037 -0.311,0.055 -0.488,0.055 -0.214,0 -0.397,-0.028 -0.549,-0.083 -0.152,-0.056 -0.261,-0.146 -0.327,-0.272 -0.067,-0.126 -0.148,-0.299 -0.244,-0.521 -0.096,-0.222 -0.2,-0.473 -0.311,-0.754 -0.111,-0.281 -0.225,-0.579 -0.343,-0.893 -0.119,-0.314 -0.232,-0.627 -0.339,-0.937 -0.107,-0.311 -0.207,-0.61 -0.299,-0.899 -0.093,-0.288 -0.168,-0.547 -0.228,-0.776 0.074,-0.089 0.18,-0.164 0.317,-0.227 0.136,-0.063 0.279,-0.095 0.427,-0.095 0.192,0 0.349,0.045 0.471,0.133 0.122,0.089 0.216,0.248 0.283,0.477 l 0.554,1.83 c 0.045,0.148 0.094,0.305 0.15,0.472 0.055,0.166 0.109,0.329 0.161,0.488 0.051,0.159 0.101,0.31 0.149,0.454 0.049,0.145 0.087,0.265 0.117,0.361 h 0.044 c 0.215,-0.651 0.425,-1.322 0.632,-2.013 0.207,-0.691 0.389,-1.373 0.544,-2.046 0.089,-0.052 0.19,-0.091 0.305,-0.117 0.114,-0.026 0.227,-0.039 0.338,-0.039 z"
           fill="#ffffff"
           id="path116"
           style="fill:#000000;fill-opacity:1" /><path
           d="m 131.301,148.661 c -0.088,-0.081 -0.159,-0.173 -0.21,-0.277 -0.052,-0.104 -0.078,-0.218 -0.078,-0.344 0,-0.126 0.028,-0.242 0.083,-0.349 0.056,-0.107 0.124,-0.213 0.205,-0.316 l 2.351,-2.862 h -2.439 c -0.037,-0.059 -0.071,-0.138 -0.1,-0.238 -0.03,-0.1 -0.045,-0.205 -0.045,-0.316 0,-0.192 0.045,-0.333 0.133,-0.422 0.089,-0.088 0.207,-0.133 0.355,-0.133 h 3.527 c 0.089,0.082 0.159,0.174 0.211,0.278 0.052,0.103 0.078,0.221 0.078,0.354 0,0.119 -0.028,0.232 -0.084,0.339 -0.055,0.107 -0.124,0.212 -0.205,0.316 l -2.34,2.872 h 2.584 c 0.037,0.059 0.07,0.137 0.1,0.233 0.03,0.096 0.044,0.2 0.044,0.311 0,0.192 -0.044,0.332 -0.133,0.421 -0.088,0.089 -0.207,0.133 -0.355,0.133 z"
           fill="#ffffff"
           id="path118"
           style="fill:#000000;fill-opacity:1" /><path
           d="m 141.305,147.641 c 0,0.17 -0.037,0.307 -0.111,0.41 -0.074,0.104 -0.185,0.204 -0.333,0.3 -0.184,0.118 -0.428,0.227 -0.732,0.327 -0.303,0.1 -0.654,0.15 -1.053,0.15 -0.887,0 -1.592,-0.228 -2.113,-0.682 -0.521,-0.455 -0.782,-1.152 -0.782,-2.091 0,-0.488 0.07,-0.908 0.211,-1.259 0.14,-0.351 0.331,-0.641 0.571,-0.87 0.24,-0.23 0.523,-0.4 0.848,-0.511 0.326,-0.111 0.677,-0.166 1.054,-0.166 0.2,0 0.388,0.02 0.566,0.061 0.177,0.041 0.336,0.091 0.477,0.15 v -2.008 c 0.059,-0.022 0.146,-0.042 0.26,-0.061 0.115,-0.018 0.239,-0.027 0.372,-0.027 0.266,0 0.46,0.048 0.582,0.144 0.122,0.096 0.183,0.266 0.183,0.51 z m -1.397,-3.05 c -0.111,-0.067 -0.241,-0.122 -0.389,-0.166 -0.147,-0.045 -0.306,-0.067 -0.476,-0.067 -0.415,0 -0.758,0.133 -1.032,0.399 -0.273,0.267 -0.41,0.703 -0.41,1.309 0,0.569 0.131,0.985 0.393,1.248 0.263,0.262 0.62,0.393 1.071,0.393 0.192,0 0.356,-0.022 0.493,-0.066 0.137,-0.044 0.253,-0.096 0.35,-0.155 z"
           fill="#ffffff"
           id="path120"
           style="fill:#000000;fill-opacity:1" /><path
           d="m 143.867,146.665 c 0.103,0.377 0.296,0.651 0.577,0.821 0.281,0.17 0.628,0.255 1.042,0.255 0.311,0 0.597,-0.046 0.86,-0.139 0.262,-0.092 0.475,-0.19 0.637,-0.294 0.104,0.059 0.189,0.141 0.255,0.244 0.067,0.104 0.1,0.215 0.1,0.333 0,0.148 -0.05,0.279 -0.149,0.394 -0.1,0.114 -0.237,0.212 -0.411,0.294 -0.174,0.081 -0.379,0.144 -0.615,0.188 -0.237,0.044 -0.492,0.067 -0.766,0.067 -0.436,0 -0.833,-0.06 -1.192,-0.178 -0.358,-0.118 -0.665,-0.297 -0.92,-0.538 -0.255,-0.24 -0.455,-0.538 -0.599,-0.893 -0.144,-0.354 -0.216,-0.768 -0.216,-1.242 0,-0.458 0.07,-0.857 0.21,-1.197 0.141,-0.341 0.331,-0.625 0.571,-0.854 0.241,-0.23 0.52,-0.4 0.838,-0.511 0.318,-0.111 0.654,-0.166 1.009,-0.166 0.362,0 0.695,0.057 0.998,0.172 0.303,0.115 0.562,0.274 0.776,0.477 0.215,0.203 0.383,0.447 0.505,0.732 0.122,0.284 0.183,0.593 0.183,0.926 0,0.207 -0.054,0.362 -0.161,0.466 -0.107,0.103 -0.257,0.17 -0.449,0.199 z m 1.231,-2.362 c -0.362,0 -0.665,0.12 -0.909,0.36 -0.244,0.24 -0.381,0.582 -0.411,1.026 l 2.462,-0.366 c -0.029,-0.274 -0.136,-0.512 -0.321,-0.715 -0.185,-0.204 -0.459,-0.305 -0.821,-0.305 z m 0.044,-2.529 0.999,-0.998 c 0.214,0.007 0.386,0.063 0.515,0.166 0.13,0.104 0.194,0.237 0.194,0.399 0,0.119 -0.035,0.22 -0.105,0.305 -0.07,0.085 -0.172,0.191 -0.305,0.317 l -0.588,0.554 c -0.214,0.192 -0.443,0.288 -0.687,0.288 -0.156,0 -0.294,-0.027 -0.416,-0.083 -0.122,-0.055 -0.276,-0.172 -0.461,-0.349 l -0.876,-0.865 c -0.007,-0.03 -0.011,-0.063 -0.011,-0.1 0,-0.148 0.044,-0.287 0.133,-0.416 0.089,-0.129 0.226,-0.194 0.411,-0.194 0.118,0 0.223,0.026 0.316,0.078 0.092,0.051 0.212,0.159 0.36,0.321 z"
           fill="#ffffff"
           id="path122"
           style="fill:#000000;fill-opacity:1" /><path
           d="m 150.122,148.65 c -0.059,0.015 -0.146,0.033 -0.261,0.056 -0.114,0.022 -0.238,0.033 -0.371,0.033 -0.266,0 -0.46,-0.048 -0.582,-0.144 -0.122,-0.096 -0.183,-0.266 -0.183,-0.51 v -6.633 c 0.059,-0.022 0.146,-0.042 0.26,-0.061 0.115,-0.018 0.239,-0.027 0.372,-0.027 0.266,0 0.46,0.048 0.582,0.144 0.122,0.096 0.183,0.266 0.183,0.51 z"
           fill="#ffffff"
           id="path124"
           style="fill:#000000;fill-opacity:1" /><path
           d="m 153.671,147.763 c 0.214,0 0.41,-0.02 0.588,-0.061 0.177,-0.041 0.307,-0.091 0.388,-0.15 v -1.231 l -1.076,0.1 c -0.296,0.03 -0.521,0.094 -0.676,0.194 -0.156,0.1 -0.233,0.257 -0.233,0.471 0,0.215 0.079,0.381 0.238,0.499 0.159,0.119 0.416,0.178 0.771,0.178 z m -0.044,-4.514 c 0.724,0 1.303,0.155 1.735,0.466 0.433,0.31 0.649,0.791 0.649,1.442 v 2.562 c 0,0.177 -0.044,0.317 -0.133,0.421 -0.089,0.104 -0.2,0.196 -0.333,0.277 -0.207,0.126 -0.469,0.226 -0.787,0.3 -0.318,0.074 -0.68,0.111 -1.087,0.111 -0.739,0 -1.322,-0.143 -1.747,-0.427 -0.425,-0.285 -0.637,-0.712 -0.637,-1.281 0,-0.496 0.157,-0.875 0.471,-1.137 0.314,-0.263 0.771,-0.423 1.37,-0.483 l 1.519,-0.155 v -0.199 c 0,-0.281 -0.102,-0.488 -0.305,-0.622 -0.203,-0.133 -0.49,-0.199 -0.86,-0.199 -0.288,0 -0.569,0.035 -0.842,0.105 -0.274,0.07 -0.518,0.157 -0.732,0.261 -0.082,-0.059 -0.15,-0.139 -0.206,-0.239 -0.055,-0.099 -0.083,-0.208 -0.083,-0.327 0,-0.148 0.035,-0.268 0.106,-0.36 0.07,-0.093 0.183,-0.176 0.338,-0.25 0.214,-0.089 0.458,-0.155 0.732,-0.199 0.273,-0.045 0.551,-0.067 0.832,-0.067 z m 0.798,-2.573 c 0.274,0 0.484,0.063 0.632,0.189 0.148,0.125 0.222,0.266 0.222,0.421 0,0.14 -0.029,0.253 -0.089,0.338 -0.059,0.085 -0.159,0.191 -0.299,0.316 l -1.031,0.932 c -0.237,0 -0.42,-0.059 -0.549,-0.177 -0.13,-0.119 -0.195,-0.248 -0.195,-0.389 0,-0.081 0.017,-0.151 0.05,-0.21 0.034,-0.06 0.087,-0.13 0.161,-0.211 z"
           fill="#ffffff"
           id="path126"
           style="fill:#000000;fill-opacity:1" /><path
           d="m 161.324,143.293 c 0.192,0 0.353,0.045 0.482,0.133 0.129,0.089 0.194,0.237 0.194,0.444 0,0.096 -0.028,0.252 -0.083,0.466 -0.056,0.214 -0.129,0.462 -0.222,0.743 -0.092,0.281 -0.198,0.584 -0.316,0.909 -0.118,0.326 -0.24,0.646 -0.366,0.96 -0.126,0.314 -0.251,0.612 -0.377,0.893 -0.126,0.281 -0.24,0.517 -0.344,0.709 -0.074,0.06 -0.185,0.108 -0.333,0.145 -0.147,0.037 -0.31,0.055 -0.488,0.055 -0.214,0 -0.397,-0.028 -0.549,-0.083 -0.151,-0.056 -0.26,-0.146 -0.327,-0.272 -0.066,-0.126 -0.148,-0.299 -0.244,-0.521 -0.096,-0.222 -0.199,-0.473 -0.31,-0.754 -0.111,-0.281 -0.226,-0.579 -0.344,-0.893 -0.118,-0.314 -0.231,-0.627 -0.338,-0.937 -0.108,-0.311 -0.207,-0.61 -0.3,-0.899 -0.092,-0.288 -0.168,-0.547 -0.227,-0.776 0.074,-0.089 0.179,-0.164 0.316,-0.227 0.137,-0.063 0.279,-0.095 0.427,-0.095 0.192,0 0.349,0.045 0.471,0.133 0.122,0.089 0.217,0.248 0.283,0.477 l 0.555,1.83 c 0.044,0.148 0.094,0.305 0.149,0.472 0.056,0.166 0.109,0.329 0.161,0.488 0.052,0.159 0.102,0.31 0.15,0.454 0.048,0.145 0.087,0.265 0.116,0.361 h 0.045 c 0.214,-0.651 0.425,-1.322 0.632,-2.013 0.207,-0.691 0.388,-1.373 0.543,-2.046 0.089,-0.052 0.191,-0.091 0.305,-0.117 0.115,-0.026 0.228,-0.039 0.339,-0.039 z"
           fill="#ffffff"
           id="path128"
           style="fill:#000000;fill-opacity:1" /><path
           d="m 165.006,147.763 c 0.214,0 0.41,-0.02 0.587,-0.061 0.178,-0.041 0.307,-0.091 0.389,-0.15 v -1.231 l -1.076,0.1 c -0.296,0.03 -0.521,0.094 -0.677,0.194 -0.155,0.1 -0.233,0.257 -0.233,0.471 0,0.215 0.08,0.381 0.239,0.499 0.159,0.119 0.416,0.178 0.771,0.178 z m -0.045,-4.514 c 0.725,0 1.303,0.155 1.736,0.466 0.432,0.31 0.649,0.791 0.649,1.442 v 2.562 c 0,0.177 -0.045,0.317 -0.133,0.421 -0.089,0.104 -0.2,0.196 -0.333,0.277 -0.207,0.126 -0.47,0.226 -0.787,0.3 -0.318,0.074 -0.681,0.111 -1.087,0.111 -0.74,0 -1.322,-0.143 -1.747,-0.427 -0.425,-0.285 -0.638,-0.712 -0.638,-1.281 0,-0.496 0.157,-0.875 0.472,-1.137 0.314,-0.263 0.77,-0.423 1.369,-0.483 l 1.52,-0.155 v -0.199 c 0,-0.281 -0.102,-0.488 -0.305,-0.622 -0.204,-0.133 -0.49,-0.199 -0.86,-0.199 -0.288,0 -0.569,0.035 -0.843,0.105 -0.273,0.07 -0.517,0.157 -0.732,0.261 -0.081,-0.059 -0.149,-0.139 -0.205,-0.239 -0.055,-0.099 -0.083,-0.208 -0.083,-0.327 0,-0.148 0.035,-0.268 0.105,-0.36 0.07,-0.093 0.183,-0.176 0.338,-0.25 0.215,-0.089 0.459,-0.155 0.732,-0.199 0.274,-0.045 0.551,-0.067 0.832,-0.067 z m 0.799,-2.573 c 0.273,0 0.484,0.063 0.632,0.189 0.148,0.125 0.222,0.266 0.222,0.421 0,0.14 -0.03,0.253 -0.089,0.338 -0.059,0.085 -0.159,0.191 -0.299,0.316 l -1.032,0.932 c -0.236,0 -0.419,-0.059 -0.549,-0.177 -0.129,-0.119 -0.194,-0.248 -0.194,-0.389 0,-0.081 0.017,-0.151 0.05,-0.21 0.033,-0.06 0.087,-0.13 0.161,-0.211 z"
           fill="#ffffff"
           id="path130"
           style="fill:#000000;fill-opacity:1" /><path
           d="m 172.203,145.279 c 0,-0.318 -0.09,-0.551 -0.271,-0.699 -0.181,-0.148 -0.427,-0.222 -0.738,-0.222 -0.214,0 -0.412,0.026 -0.593,0.078 -0.181,0.051 -0.338,0.118 -0.472,0.199 v 4.015 c -0.066,0.015 -0.155,0.033 -0.266,0.056 -0.111,0.022 -0.236,0.033 -0.377,0.033 -0.259,0 -0.451,-0.048 -0.576,-0.144 -0.126,-0.096 -0.189,-0.266 -0.189,-0.51 v -3.561 c 0,-0.177 0.037,-0.321 0.111,-0.432 0.074,-0.111 0.188,-0.218 0.344,-0.322 0.214,-0.148 0.499,-0.271 0.854,-0.371 0.355,-0.1 0.746,-0.15 1.175,-0.15 0.762,0 1.351,0.168 1.769,0.505 0.418,0.336 0.627,0.83 0.627,1.48 v 3.416 c -0.059,0.015 -0.146,0.033 -0.261,0.056 -0.114,0.022 -0.238,0.033 -0.371,0.033 -0.266,0 -0.461,-0.048 -0.583,-0.144 -0.122,-0.096 -0.183,-0.266 -0.183,-0.51 z"
           fill="#ffffff"
           id="path132"
           style="fill:#000000;fill-opacity:1" /><path
           d="m 175.841,148.75 c -0.266,0 -0.462,-0.05 -0.588,-0.15 -0.125,-0.1 -0.188,-0.268 -0.188,-0.504 v -4.636 c 0.059,-0.015 0.144,-0.034 0.255,-0.056 0.111,-0.022 0.233,-0.033 0.366,-0.033 0.266,0 0.462,0.05 0.588,0.15 0.125,0.1 0.188,0.268 0.188,0.504 v 4.636 c -0.059,0.015 -0.144,0.034 -0.255,0.056 -0.111,0.022 -0.233,0.033 -0.366,0.033 z m 0.666,-8.074 c 0.273,0 0.484,0.063 0.632,0.189 0.148,0.125 0.222,0.266 0.222,0.421 0,0.14 -0.03,0.253 -0.089,0.338 -0.059,0.085 -0.159,0.191 -0.3,0.316 l -1.031,0.932 c -0.237,0 -0.42,-0.059 -0.549,-0.177 -0.129,-0.119 -0.194,-0.248 -0.194,-0.389 0,-0.081 0.017,-0.151 0.05,-0.21 0.033,-0.06 0.087,-0.13 0.161,-0.211 z"
           fill="#ffffff"
           id="path134"
           style="fill:#000000;fill-opacity:1" /><path
           d="m 182.629,148.817 c -0.215,0 -0.413,-0.021 -0.594,-0.061 -0.181,-0.041 -0.345,-0.091 -0.493,-0.15 v 2.04 c -0.067,0.015 -0.156,0.034 -0.266,0.056 -0.111,0.022 -0.237,0.033 -0.378,0.033 -0.258,0 -0.451,-0.048 -0.576,-0.144 -0.126,-0.096 -0.189,-0.266 -0.189,-0.51 v -5.623 c 0,-0.178 0.035,-0.322 0.106,-0.433 0.07,-0.111 0.183,-0.214 0.338,-0.31 0.214,-0.126 0.48,-0.235 0.798,-0.327 0.318,-0.093 0.677,-0.139 1.076,-0.139 0.407,0 0.782,0.054 1.126,0.161 0.344,0.107 0.641,0.273 0.893,0.499 0.251,0.225 0.447,0.512 0.587,0.859 0.141,0.348 0.211,0.762 0.211,1.243 0,0.465 -0.066,0.872 -0.199,1.22 -0.134,0.347 -0.317,0.639 -0.549,0.876 -0.233,0.236 -0.511,0.414 -0.832,0.532 -0.322,0.118 -0.675,0.178 -1.059,0.178 z m -0.211,-1.121 c 0.444,0 0.791,-0.136 1.042,-0.41 0.252,-0.274 0.377,-0.699 0.377,-1.275 0,-0.599 -0.129,-1.024 -0.388,-1.276 -0.258,-0.251 -0.591,-0.377 -0.998,-0.377 -0.199,0 -0.375,0.026 -0.527,0.078 -0.151,0.051 -0.282,0.107 -0.393,0.166 v 2.85 c 0.118,0.074 0.249,0.133 0.393,0.178 0.145,0.044 0.309,0.066 0.494,0.066 z"
           fill="#ffffff"
           id="path136"
           style="fill:#000000;fill-opacity:1" /><path
           d="m 187.819,148.65 c -0.067,0.015 -0.155,0.033 -0.266,0.056 -0.111,0.022 -0.237,0.033 -0.377,0.033 -0.259,0 -0.451,-0.048 -0.577,-0.144 -0.126,-0.096 -0.188,-0.266 -0.188,-0.51 v -3.516 c 0,-0.192 0.044,-0.355 0.133,-0.488 0.088,-0.133 0.218,-0.252 0.388,-0.355 0.229,-0.141 0.512,-0.255 0.848,-0.344 0.337,-0.089 0.701,-0.133 1.093,-0.133 0.702,0 1.053,0.218 1.053,0.654 0,0.104 -0.016,0.202 -0.05,0.294 -0.033,0.093 -0.068,0.168 -0.105,0.228 -0.17,-0.037 -0.381,-0.056 -0.632,-0.056 -0.259,0 -0.503,0.03 -0.732,0.089 -0.229,0.059 -0.425,0.133 -0.588,0.222 z"
           fill="#ffffff"
           id="path138"
           style="fill:#000000;fill-opacity:1" /><path
           d="m 195.826,146.033 c 0,0.429 -0.064,0.815 -0.194,1.159 -0.129,0.344 -0.312,0.637 -0.549,0.881 -0.236,0.244 -0.521,0.431 -0.854,0.561 -0.332,0.129 -0.706,0.194 -1.12,0.194 -0.414,0 -0.787,-0.065 -1.12,-0.194 -0.333,-0.13 -0.617,-0.315 -0.854,-0.555 -0.236,-0.24 -0.419,-0.532 -0.549,-0.876 -0.129,-0.344 -0.194,-0.734 -0.194,-1.17 0,-0.429 0.065,-0.815 0.194,-1.159 0.13,-0.344 0.314,-0.636 0.555,-0.876 0.24,-0.241 0.526,-0.425 0.859,-0.555 0.333,-0.129 0.703,-0.194 1.109,-0.194 0.407,0 0.777,0.065 1.109,0.194 0.333,0.13 0.62,0.316 0.86,0.56 0.24,0.244 0.425,0.538 0.554,0.882 0.13,0.344 0.194,0.726 0.194,1.148 z m -2.717,-1.675 c -0.399,0 -0.713,0.146 -0.942,0.438 -0.23,0.292 -0.344,0.704 -0.344,1.237 0,0.54 0.112,0.954 0.338,1.242 0.225,0.288 0.542,0.432 0.948,0.432 0.407,0 0.723,-0.146 0.948,-0.438 0.226,-0.292 0.339,-0.704 0.339,-1.236 0,-0.533 -0.115,-0.945 -0.344,-1.237 -0.229,-0.292 -0.544,-0.438 -0.943,-0.438 z"
           fill="#ffffff"
           id="path140"
           style="fill:#000000;fill-opacity:1" /><path
           d="m 204.056,147.641 c 0,0.17 -0.037,0.307 -0.111,0.41 -0.074,0.104 -0.185,0.204 -0.333,0.3 -0.185,0.118 -0.429,0.227 -0.732,0.327 -0.303,0.1 -0.654,0.15 -1.054,0.15 -0.887,0 -1.591,-0.228 -2.112,-0.682 -0.522,-0.455 -0.782,-1.152 -0.782,-2.091 0,-0.488 0.07,-0.908 0.211,-1.259 0.14,-0.351 0.33,-0.641 0.571,-0.87 0.24,-0.23 0.523,-0.4 0.848,-0.511 0.325,-0.111 0.677,-0.166 1.054,-0.166 0.199,0 0.388,0.02 0.565,0.061 0.178,0.041 0.337,0.091 0.477,0.15 v -2.008 c 0.059,-0.022 0.146,-0.042 0.261,-0.061 0.114,-0.018 0.238,-0.027 0.371,-0.027 0.267,0 0.461,0.048 0.583,0.144 0.122,0.096 0.183,0.266 0.183,0.51 z m -1.398,-3.05 c -0.111,-0.067 -0.24,-0.122 -0.388,-0.166 -0.148,-0.045 -0.307,-0.067 -0.477,-0.067 -0.414,0 -0.758,0.133 -1.031,0.399 -0.274,0.267 -0.411,0.703 -0.411,1.309 0,0.569 0.132,0.985 0.394,1.248 0.263,0.262 0.619,0.393 1.07,0.393 0.193,0 0.357,-0.022 0.494,-0.066 0.137,-0.044 0.253,-0.096 0.349,-0.155 z"
           fill="#ffffff"
           id="path142"
           style="fill:#000000;fill-opacity:1" /><path
           d="m 206.618,146.665 c 0.103,0.377 0.295,0.651 0.576,0.821 0.281,0.17 0.629,0.255 1.043,0.255 0.31,0 0.597,-0.046 0.859,-0.139 0.263,-0.092 0.475,-0.19 0.638,-0.294 0.104,0.059 0.189,0.141 0.255,0.244 0.067,0.104 0.1,0.215 0.1,0.333 0,0.148 -0.05,0.279 -0.15,0.394 -0.1,0.114 -0.236,0.212 -0.41,0.294 -0.174,0.081 -0.379,0.144 -0.616,0.188 -0.236,0.044 -0.491,0.067 -0.765,0.067 -0.436,0 -0.834,-0.06 -1.192,-0.178 -0.359,-0.118 -0.666,-0.297 -0.921,-0.538 -0.255,-0.24 -0.454,-0.538 -0.599,-0.893 -0.144,-0.354 -0.216,-0.768 -0.216,-1.242 0,-0.458 0.07,-0.857 0.211,-1.197 0.14,-0.341 0.331,-0.625 0.571,-0.854 0.24,-0.23 0.519,-0.4 0.837,-0.511 0.318,-0.111 0.655,-0.166 1.01,-0.166 0.362,0 0.695,0.057 0.998,0.172 0.303,0.115 0.562,0.274 0.776,0.477 0.215,0.203 0.383,0.447 0.505,0.732 0.122,0.284 0.183,0.593 0.183,0.926 0,0.207 -0.054,0.362 -0.161,0.466 -0.107,0.103 -0.257,0.17 -0.449,0.199 z m 1.231,-2.362 c -0.363,0 -0.666,0.12 -0.91,0.36 -0.244,0.24 -0.381,0.582 -0.41,1.026 l 2.462,-0.366 c -0.03,-0.274 -0.137,-0.512 -0.322,-0.715 -0.184,-0.204 -0.458,-0.305 -0.82,-0.305 z m 0.044,-2.529 0.998,-0.998 c 0.215,0.007 0.386,0.063 0.516,0.166 0.129,0.104 0.194,0.237 0.194,0.399 0,0.119 -0.035,0.22 -0.105,0.305 -0.071,0.085 -0.172,0.191 -0.305,0.317 l -0.588,0.554 c -0.215,0.192 -0.444,0.288 -0.688,0.288 -0.155,0 -0.294,-0.027 -0.416,-0.083 -0.122,-0.055 -0.275,-0.172 -0.46,-0.349 l -0.876,-0.865 c -0.008,-0.03 -0.011,-0.063 -0.011,-0.1 0,-0.148 0.044,-0.287 0.133,-0.416 0.089,-0.129 0.225,-0.194 0.41,-0.194 0.119,0 0.224,0.026 0.316,0.078 0.093,0.051 0.213,0.159 0.361,0.321 z"
           fill="#ffffff"
           id="path144"
           style="fill:#000000;fill-opacity:1" /><path
           d="m 212.806,147.031 c 0,0.237 0.072,0.407 0.216,0.51 0.145,0.104 0.346,0.155 0.605,0.155 0.126,0 0.253,-0.014 0.382,-0.044 0.13,-0.03 0.246,-0.067 0.35,-0.111 0.059,0.059 0.109,0.131 0.15,0.216 0.04,0.085 0.061,0.183 0.061,0.294 0,0.222 -0.1,0.405 -0.3,0.549 -0.2,0.144 -0.521,0.217 -0.965,0.217 -0.584,0 -1.044,-0.132 -1.381,-0.394 -0.336,-0.263 -0.504,-0.697 -0.504,-1.303 v -5.091 c 0.059,-0.015 0.146,-0.033 0.26,-0.055 0.115,-0.023 0.239,-0.034 0.372,-0.034 0.259,0 0.449,0.048 0.571,0.145 0.122,0.096 0.183,0.266 0.183,0.51 v 0.92 h 1.63 c 0.037,0.059 0.071,0.137 0.1,0.233 0.03,0.096 0.045,0.2 0.045,0.311 0,0.192 -0.045,0.332 -0.133,0.421 -0.089,0.089 -0.207,0.133 -0.355,0.133 h -1.287 z"
           fill="#ffffff"
           id="path146"
           style="fill:#000000;fill-opacity:1" /><path
           d="m 215.723,143.449 c 0.059,-0.015 0.146,-0.034 0.261,-0.056 0.114,-0.022 0.238,-0.033 0.371,-0.033 0.266,0 0.46,0.048 0.582,0.144 0.122,0.096 0.183,0.266 0.183,0.51 v 4.636 c -0.059,0.015 -0.146,0.033 -0.26,0.056 -0.115,0.022 -0.239,0.033 -0.372,0.033 -0.266,0 -0.46,-0.048 -0.582,-0.144 -0.122,-0.096 -0.183,-0.266 -0.183,-0.51 z m -0.111,-1.608 c 0,-0.215 0.076,-0.398 0.227,-0.549 0.152,-0.152 0.346,-0.228 0.583,-0.228 0.236,0 0.429,0.076 0.576,0.228 0.148,0.151 0.222,0.334 0.222,0.549 0,0.221 -0.074,0.408 -0.222,0.56 -0.147,0.151 -0.34,0.227 -0.576,0.227 -0.237,0 -0.431,-0.076 -0.583,-0.227 -0.151,-0.152 -0.227,-0.339 -0.227,-0.56 z"
           fill="#ffffff"
           id="path148"
           style="display:inline;fill:#000000;fill-opacity:1" /></g></g></g></svg>
